<svg width="340" height="308" viewBox="0 0 340 308" fill="none" xmlns="http://www.w3.org/2000/svg">
<ellipse cx="117.545" cy="94.1892" rx="117.545" ry="94.1892" transform="matrix(-1 0 0 1 329.279 0)" fill="#AED7FF"/>
<ellipse cx="117.545" cy="94.1892" rx="117.545" ry="94.1892" transform="matrix(-1 0 0 1 245.045 11.4863)" fill="#AED7FF"/>
<ellipse cx="170" cy="120.991" rx="170" ry="120.991" transform="matrix(-1 0 0 1 340 36.7568)" fill="#AED7FF"/>
<ellipse cx="107.59" cy="100.315" rx="107.59" ry="100.315" transform="matrix(-1 0 0 1 232.793 106.441)" fill="#AED7FF"/>
<g clip-path="url(#clip0_2255_2230)">
<path opacity="0.1" d="M74.8345 110.251H36.2851C34.9199 110.251 33.8132 111.359 33.8132 112.725V120.934C33.8132 122.3 34.9199 123.408 36.2851 123.408H74.8345C76.1997 123.408 77.3064 122.3 77.3064 120.934V112.725C77.3064 111.359 76.1997 110.251 74.8345 110.251Z" fill="#0075F2"/>
<path opacity="0.1" d="M120.351 123.411H81.8011C80.4359 123.411 79.3292 124.519 79.3292 125.885V134.094C79.3292 135.46 80.4359 136.567 81.8011 136.567H120.351C121.716 136.567 122.822 135.46 122.822 134.094V125.885C122.822 124.519 121.716 123.411 120.351 123.411Z" fill="#0075F2"/>
<path opacity="0.1" d="M165.87 136.567H127.321C125.955 136.567 124.849 137.675 124.849 139.041V147.25C124.849 148.616 125.955 149.724 127.321 149.724H165.87C167.235 149.724 168.342 148.616 168.342 147.25V139.041C168.342 137.675 167.235 136.567 165.87 136.567Z" fill="#0075F2"/>
<path opacity="0.1" d="M74.8345 90.5171H36.2851C34.9199 90.5171 33.8132 91.6245 33.8132 92.9905V101.2C33.8132 102.566 34.9199 103.673 36.2851 103.673H74.8345C76.1997 103.673 77.3064 102.566 77.3064 101.2V92.9905C77.3064 91.6245 76.1997 90.5171 74.8345 90.5171Z" fill="#0075F2"/>
<path opacity="0.1" d="M120.351 103.674H81.8011C80.4359 103.674 79.3292 104.781 79.3292 106.147V114.357C79.3292 115.723 80.4359 116.83 81.8011 116.83H120.351C121.716 116.83 122.822 115.723 122.822 114.357V106.147C122.822 104.781 121.716 103.674 120.351 103.674Z" fill="#0075F2"/>
<path opacity="0.1" d="M165.87 116.833H127.321C125.955 116.833 124.849 117.94 124.849 119.306V127.516C124.849 128.882 125.955 129.989 127.321 129.989H165.87C167.235 129.989 168.342 128.882 168.342 127.516V119.306C168.342 117.94 167.235 116.833 165.87 116.833Z" fill="#0075F2"/>
<path opacity="0.1" d="M216.443 110.251H177.894C176.528 110.251 175.422 111.359 175.422 112.725V120.934C175.422 122.3 176.528 123.408 177.894 123.408H216.443C217.808 123.408 218.915 122.3 218.915 120.934V112.725C218.915 111.359 217.808 110.251 216.443 110.251Z" fill="#0075F2"/>
<path opacity="0.1" d="M261.959 123.411H223.41C222.044 123.411 220.938 124.519 220.938 125.885V134.094C220.938 135.46 222.044 136.567 223.41 136.567H261.959C263.324 136.567 264.431 135.46 264.431 134.094V125.885C264.431 124.519 263.324 123.411 261.959 123.411Z" fill="#0075F2"/>
<path opacity="0.1" d="M307.478 136.567H268.929C267.564 136.567 266.457 137.675 266.457 139.041V147.25C266.457 148.616 267.564 149.724 268.929 149.724H307.478C308.844 149.724 309.95 148.616 309.95 147.25V139.041C309.95 137.675 308.844 136.567 307.478 136.567Z" fill="#0075F2"/>
<path opacity="0.1" d="M216.443 90.5171H177.894C176.528 90.5171 175.422 91.6245 175.422 92.9905V101.2C175.422 102.566 176.528 103.673 177.894 103.673H216.443C217.808 103.673 218.915 102.566 218.915 101.2V92.9905C218.915 91.6245 217.808 90.5171 216.443 90.5171Z" fill="#0075F2"/>
<path opacity="0.1" d="M261.959 103.674H223.41C222.044 103.674 220.938 104.781 220.938 106.147V114.357C220.938 115.723 222.044 116.83 223.41 116.83H261.959C263.324 116.83 264.431 115.723 264.431 114.357V106.147C264.431 104.781 263.324 103.674 261.959 103.674Z" fill="#0075F2"/>
<path opacity="0.1" d="M307.478 116.833H268.929C267.564 116.833 266.457 117.94 266.457 119.306V127.516C266.457 128.882 267.564 129.989 268.929 129.989H307.478C308.844 129.989 309.95 128.882 309.95 127.516V119.306C309.95 117.94 308.844 116.833 307.478 116.833Z" fill="#0075F2"/>
<path opacity="0.1" d="M74.8345 64.2017H36.2851C34.9199 64.2017 33.8132 65.3091 33.8132 66.6751V74.8844C33.8132 76.2504 34.9199 77.3578 36.2851 77.3578H74.8345C76.1997 77.3578 77.3064 76.2504 77.3064 74.8844V66.6751C77.3064 65.3091 76.1997 64.2017 74.8345 64.2017Z" fill="#0075F2"/>
<path opacity="0.1" d="M120.351 77.3579H81.8011C80.4359 77.3579 79.3292 78.4653 79.3292 79.8313V88.0406C79.3292 89.4067 80.4359 90.514 81.8011 90.514H120.351C121.716 90.514 122.822 89.4067 122.822 88.0406V79.8313C122.822 78.4653 121.716 77.3579 120.351 77.3579Z" fill="#0075F2"/>
<path opacity="0.1" d="M165.87 90.5171H127.321C125.955 90.5171 124.849 91.6245 124.849 92.9905V101.2C124.849 102.566 125.955 103.673 127.321 103.673H165.87C167.235 103.673 168.342 102.566 168.342 101.2V92.9905C168.342 91.6245 167.235 90.5171 165.87 90.5171Z" fill="#0075F2"/>
<path opacity="0.1" d="M120.351 57.6235H81.8011C80.4359 57.6235 79.3292 58.7309 79.3292 60.097V68.3062C79.3292 69.6723 80.4359 70.7797 81.8011 70.7797H120.351C121.716 70.7797 122.822 69.6723 122.822 68.3062V60.097C122.822 58.7309 121.716 57.6235 120.351 57.6235Z" fill="#0075F2"/>
<path opacity="0.1" d="M165.87 70.7803H127.321C125.955 70.7803 124.849 71.8877 124.849 73.2537V81.463C124.849 82.829 125.955 83.9364 127.321 83.9364H165.87C167.235 83.9364 168.342 82.829 168.342 81.463V73.2537C168.342 71.8877 167.235 70.7803 165.87 70.7803Z" fill="#0075F2"/>
<path opacity="0.1" d="M216.443 64.2017H177.894C176.528 64.2017 175.422 65.3091 175.422 66.6751V74.8844C175.422 76.2504 176.528 77.3578 177.894 77.3578H216.443C217.808 77.3578 218.915 76.2504 218.915 74.8844V66.6751C218.915 65.3091 217.808 64.2017 216.443 64.2017Z" fill="#0075F2"/>
<path opacity="0.1" d="M261.959 77.3579H223.41C222.044 77.3579 220.938 78.4653 220.938 79.8313V88.0406C220.938 89.4067 222.044 90.514 223.41 90.514H261.959C263.324 90.514 264.431 89.4067 264.431 88.0406V79.8313C264.431 78.4653 263.324 77.3579 261.959 77.3579Z" fill="#0075F2"/>
<path opacity="0.1" d="M307.478 90.5171H268.929C267.564 90.5171 266.457 91.6245 266.457 92.9905V101.2C266.457 102.566 267.564 103.673 268.929 103.673H307.478C308.844 103.673 309.95 102.566 309.95 101.2V92.9905C309.95 91.6245 308.844 90.5171 307.478 90.5171Z" fill="#0075F2"/>
<path opacity="0.1" d="M216.443 44.4644H177.894C176.528 44.4644 175.422 45.5717 175.422 46.9378V55.1471C175.422 56.5131 176.528 57.6205 177.894 57.6205H216.443C217.808 57.6205 218.915 56.5131 218.915 55.1471V46.9378C218.915 45.5717 217.808 44.4644 216.443 44.4644Z" fill="#0075F2"/>
<path opacity="0.1" d="M261.959 57.6235H223.41C222.044 57.6235 220.938 58.7309 220.938 60.097V68.3062C220.938 69.6723 222.044 70.7797 223.41 70.7797H261.959C263.324 70.7797 264.431 69.6723 264.431 68.3062V60.097C264.431 58.7309 263.324 57.6235 261.959 57.6235Z" fill="#0075F2"/>
<path opacity="0.1" d="M307.478 70.7803H268.929C267.564 70.7803 266.457 71.8877 266.457 73.2537V81.463C266.457 82.829 267.564 83.9364 268.929 83.9364H307.478C308.844 83.9364 309.95 82.829 309.95 81.463V73.2537C309.95 71.8877 308.844 70.7803 307.478 70.7803Z" fill="#0075F2"/>
<path d="M62.0923 115.738L46.7883 209.615L115.989 202.291L112.995 194.302L58.9317 198.796L71.5741 115.571L62.0923 115.738Z" fill="#3F3D56"/>
<path d="M44.1267 9.21034L137.281 8.87744L164.23 212.944L70.7424 225.594L44.1267 9.21034Z" fill="#3F3D56"/>
<path d="M54.274 17.0332H129.463L155.746 206.785L78.228 217.438L54.274 17.0332Z" fill="white"/>
<path d="M125.185 198.25C125.657 199.156 126.01 200.134 126.625 200.95C128.422 203.353 131.832 203.73 134.39 205.298C134.518 205.363 134.624 205.465 134.693 205.591C134.81 205.867 134.55 206.156 134.301 206.33C132.361 207.691 129.816 207.721 127.444 207.704C126.646 207.733 125.849 207.657 125.072 207.478C123.817 207.145 122.743 206.27 121.505 205.913C120.863 205.753 120.207 205.66 119.545 205.637L116.947 205.461C116.255 205.451 115.57 205.324 114.921 205.085C114.597 204.961 114.311 204.757 114.087 204.492C113.864 204.227 113.711 203.91 113.643 203.57C113.57 203.017 113.806 202.481 113.946 201.942C114.279 200.664 114.176 199.119 115.171 198.247C115.58 197.933 116.05 197.706 116.551 197.581C118.359 196.971 120.205 196.48 122.077 196.11C123.618 195.807 124.503 196.939 125.185 198.25Z" fill="#3F3D56"/>
<path d="M95.7943 205.451C95.8609 206.16 95.8808 206.972 95.3685 207.468C95.0495 207.733 94.6641 207.906 94.254 207.967C91.7953 208.54 89.0539 208.58 86.9147 207.242C86.6921 207.114 86.4957 206.946 86.3358 206.745C86.1574 206.472 86.0563 206.156 86.043 205.83C85.9665 204.888 86.256 203.959 86.5188 203.05C87.1407 200.894 87.6132 198.697 87.9328 196.476C87.9594 196.292 94.2107 197.474 94.6266 198.093C95.1489 198.859 95.1522 200.697 95.292 201.609C95.5027 202.883 95.6701 204.163 95.7943 205.451Z" fill="#3F3D56"/>
<path d="M119.063 118.824L120.726 134.3C121.059 137.463 121.409 140.642 121.179 143.815C120.913 147.476 119.888 151.138 120.321 154.767C120.49 156.178 120.876 157.563 120.933 158.985C120.943 159.93 120.896 160.875 120.79 161.814C120.038 171.205 122.417 180.523 123.747 189.848C123.961 190.998 124.008 192.173 123.887 193.336C123.714 194.518 123.368 196.07 124.419 196.629L114.545 200.211C113.284 198.63 114.119 196.169 113.88 194.162C113.66 192.354 112.669 190.743 112.14 189.002C111.661 187.438 111.561 185.79 111.404 184.165C110.543 175.32 107.898 166.705 107.279 157.84C107.259 156.983 107.148 156.132 106.946 155.3C106.614 154.198 105.948 153.236 105.462 152.2C104.717 150.646 104.351 148.941 103.992 147.257L101.879 137.353C99.7434 140.535 99.8299 144.677 99.4074 148.492C98.8152 153.818 97.4911 159.055 96.4131 164.314C96.1627 165.446 95.975 166.591 95.8509 167.743C95.5714 170.829 96.127 173.945 95.8309 177.028C95.4982 180.6 93.9978 184.085 94.3604 187.657C94.56 189.635 95.3186 191.506 95.8309 193.423C96.3433 195.341 96.5961 197.444 95.8143 199.272C93.0817 198.268 90.1463 197.944 87.2607 198.327C84.0901 195.081 83.5278 190.553 83.3116 186.009C83.0953 181.465 83.6177 176.915 83.0521 172.414C82.8857 171.082 82.6262 169.784 82.583 168.456C82.4432 164.198 84.4893 160.213 85.5074 156.075C86.4235 152.35 86.511 148.469 85.7635 144.707C85.2645 142.22 84.4061 139.806 84.1001 137.286C83.6842 133.754 84.3895 130.196 85.0982 126.707C85.5739 124.353 86.0463 122 86.5853 119.659C87.1642 117.146 87.8529 114.579 89.3999 112.522C91.8752 109.23 96.2701 107.768 100.379 108.088C104.488 108.407 108.324 110.278 111.717 112.609C114.392 114.397 116.856 116.482 119.063 118.824Z" fill="#192534"/>
<path d="M108.024 59.561C107.838 59.8609 107.708 60.1927 107.642 60.5397C107.558 61.2221 107.974 61.848 108.307 62.4439C108.733 63.2095 109.061 64.026 109.282 64.874C109.44 65.3989 109.489 65.9507 109.425 66.4952C109.344 66.9042 109.198 67.2976 108.992 67.6604C108.35 68.8988 107.399 70.0439 106.105 70.5599C105.102 70.9292 104.009 70.9735 102.981 70.6864C101.959 70.397 100.993 69.9378 100.123 69.3282C99.3895 68.8633 98.7301 68.291 98.1664 67.6304C97.6283 66.9081 97.1751 66.1262 96.8157 65.3001C96.1237 63.852 95.4217 62.3041 95.5481 60.7161C95.5547 60.5721 95.5816 60.4298 95.628 60.2933C95.736 60.0468 95.887 59.8213 96.0738 59.6275C97.4932 57.9445 98.221 55.7849 98.1099 53.5854L102.957 54.6873C104.025 54.9304 105.093 55.1734 106.148 55.4763C107.013 55.726 108.344 56.0722 108.906 56.8445C109.468 57.6168 108.407 58.8552 108.024 59.561Z" fill="#FBBEBE"/>
<path d="M105.429 58.7358C110.295 58.7358 114.239 54.7891 114.239 49.9206C114.239 45.0521 110.295 41.1055 105.429 41.1055C100.564 41.1055 96.6194 45.0521 96.6194 49.9206C96.6194 54.7891 100.564 58.7358 105.429 58.7358Z" fill="#FBBEBE"/>
<path d="M104.012 67.7037C104.385 66.8881 105.19 66.3721 105.925 65.8594C106.66 65.3467 107.405 64.6909 107.548 63.8021C107.557 63.601 107.607 63.4039 107.695 63.2229C107.978 62.7967 108.65 63.0098 109.052 63.3227C110.03 64.0851 110.696 65.167 111.345 66.2223C112.184 67.5056 112.902 68.8641 113.49 70.2803C114.425 72.7471 114.538 75.4402 114.642 78.0734C114.735 80.4703 114.825 82.9038 114.242 85.2274C113.876 86.6988 113.244 88.127 113.208 89.6417C113.098 95.1445 111.188 100.404 111.055 105.907C111.045 107.498 111.125 109.089 111.295 110.671L111.607 114.243C106.77 113.965 101.946 113.54 97.1351 112.968C96.9954 111.323 96.5263 109.729 96.0971 108.137C94.3397 101.632 93.2134 94.972 92.7336 88.2501C92.4774 84.6815 92.2146 81.1261 91.8186 77.5708C91.4627 74.3383 90.764 71.0859 91.1832 67.8601C91.4026 66.3939 91.8635 64.9742 92.5472 63.659C92.7634 63.135 93.135 62.6899 93.6119 62.3839C93.8501 62.2687 94.1032 62.187 94.3638 62.1409C95.118 61.988 95.8836 61.8979 96.6527 61.8713C96.8407 61.8554 97.03 61.8735 97.2116 61.9246C97.5358 62.0862 97.8019 62.3444 97.9735 62.6636C99.4558 64.8935 101.554 66.6445 104.012 67.7037Z" fill="#F2F2F2"/>
<path d="M99.9264 66.998C100.545 67.8835 101.856 68.0933 102.428 68.9954C102.621 69.3725 102.767 69.7715 102.864 70.1839C103.213 71.2991 103.919 72.2678 104.348 73.3564C104.967 74.921 104.983 76.6521 104.99 78.3332C105.051 79.6723 104.948 81.0138 104.684 82.328C104.484 83.1503 104.158 83.9326 103.919 84.7448C103.512 86.1262 103.361 87.5703 103.473 89.0059C103.473 89.3161 103.556 89.6206 103.712 89.8881C103.938 90.1555 104.233 90.3558 104.564 90.4674C105.539 90.8968 106.56 91.3362 107.625 91.2363C107.843 91.2295 108.055 91.1589 108.234 91.0333C108.357 90.9208 108.459 90.7865 108.533 90.6371L109.199 89.5119C109.801 88.4833 110.43 87.3315 110.197 86.1563C110.028 85.5498 109.773 84.9703 109.442 84.4352C109.016 83.5668 108.654 82.669 108.357 81.7487C107.296 78.6961 106.221 75.6001 105.981 72.3777C105.841 71.1513 105.977 69.9089 106.381 68.7424C106.693 68.0245 107.086 67.3444 107.552 66.7151C107.446 66.5736 107.301 66.4676 107.134 66.4111C106.967 66.3546 106.786 66.3503 106.617 66.3988C106.282 66.5023 105.958 66.6371 105.649 66.8016C104.671 67.2144 103.586 67.0646 102.598 66.7816C102.212 66.6685 101.6 66.2823 101.201 66.3089C101.064 66.3256 99.9497 67.038 99.9264 66.998Z" fill="#0075F2"/>
<path d="M107.715 66.9615C107.515 66.8018 107.206 66.6553 107.029 66.8417C106.97 66.9225 106.927 67.0141 106.903 67.1113C106.73 67.5774 106.221 67.8071 105.759 67.9869C105.296 68.1666 104.797 68.2665 104.518 67.9236C104.429 67.7901 104.386 67.632 104.394 67.4721C104.402 67.3123 104.46 67.1591 104.561 67.0348C104.766 66.7881 105.012 66.5796 105.289 66.4189C106.82 65.3381 107.862 63.6969 108.191 61.8516C108.62 62.1929 108.904 62.6841 108.986 63.2264C109.096 63.7557 109.109 64.3017 109.219 64.831C109.382 65.59 109.744 66.2991 109.827 67.0681C109.871 67.4775 109.827 67.8903 109.827 68.2998C109.842 68.7001 109.889 69.0986 109.967 69.4916C109.189 68.666 108.64 67.6973 107.715 66.9615Z" fill="#F2F2F2"/>
<path d="M100.981 64.7011C100.648 64.3848 100.316 64.0852 99.983 63.7623C98.5231 62.3365 97.4207 60.5856 96.7658 58.6523C96.34 58.9852 95.8709 59.4247 95.8609 59.9839C95.8988 60.3797 96.0514 60.7557 96.3 61.0659C97.5581 63.0484 98.3887 65.2718 98.7387 67.594C98.9184 67.313 99.1674 67.0831 99.4616 66.9262C99.7559 66.7694 100.086 66.691 100.419 66.6985C100.944 66.6985 103.303 68.0967 103.473 67.7438C103.722 67.1912 101.38 65.0773 100.981 64.7011Z" fill="#F2F2F2"/>
<path d="M108.41 62.0512C111.54 65.1685 115.371 67.4894 119.582 68.819C120.001 68.9104 120.389 69.1075 120.71 69.3916C120.95 69.6912 121.111 70.0459 121.179 70.4236C121.991 73.5994 122.264 76.8851 122.533 80.1509C122.604 80.691 122.592 81.2386 122.5 81.7754C122.304 82.6476 121.685 83.3533 121.076 84.0092C119.166 86.0565 116.987 88.197 116.664 90.98C116.64 91.5166 116.576 92.0506 116.475 92.5779C116.308 93.1971 115.939 93.7431 115.713 94.3456C114.602 97.3118 117.113 100.904 115.583 103.667C116.412 105.259 116.98 106.974 117.267 108.747C117.318 109.419 117.472 110.079 117.722 110.704C118.178 111.656 119.116 112.262 119.855 113.035C122.107 115.345 122.383 118.88 122.516 122.106C122.6 123.924 122.573 126.011 121.186 127.203C120.384 127.898 119.289 128.125 118.241 128.298C116.847 128.531 115.33 128.697 114.096 128.008C113.211 127.516 112.609 126.653 112.033 125.821C110.942 124.233 109.847 122.649 108.813 121.021C107.176 118.454 105.632 115.521 106.105 112.512C105.972 115.591 105.323 118.694 103.812 121.377C102.302 124.06 99.8699 126.301 96.9189 127.186C93.9679 128.072 90.5178 127.446 88.3187 125.289C87.6008 124.549 86.9843 123.717 86.4855 122.815C85.2337 120.67 84.3203 118.345 83.7774 115.921C83.6343 115.292 83.5279 114.589 83.8439 114.027C83.9937 113.76 84.2232 113.551 84.3796 113.288C84.9052 112.392 84.3995 111.264 83.8905 110.351C83.1153 110.425 82.5597 109.512 82.6296 108.733C82.6995 107.955 83.1652 107.279 83.4946 106.57C84.4594 104.479 84.2465 102.046 83.7807 99.7919C83.315 97.5381 82.6196 95.2977 82.6728 92.9974C82.7294 90.5639 80.9794 88.3734 79.6453 86.3394C78.9001 85.1943 78.0317 84.129 77.383 82.9272C76.0304 80.3983 75.7177 77.4409 76.5113 74.6847C76.9772 73.2694 77.5882 71.9061 78.3345 70.6167L79.4324 68.556C79.6368 68.0636 79.9541 67.6263 80.3587 67.2793C80.7633 66.9323 81.2437 66.6855 81.7613 66.5586L89.3567 63.5625C90.3279 63.2306 91.25 62.7693 92.0981 62.191C93.0263 61.4919 93.7183 60.5265 94.6033 59.7808C94.7323 59.6453 94.887 59.5369 95.0584 59.462C95.2298 59.3871 95.4144 59.3472 95.6014 59.3447C96.3134 59.408 96.5662 60.3068 96.6394 61.0092C96.8057 62.5805 97.9702 63.9121 98.3661 65.4401C100.509 73.8791 105.043 81.6622 106.288 90.2776C107.685 86.9187 109.082 83.5531 110.872 80.3906C111.154 79.9365 111.392 79.456 111.581 78.9558C111.796 78.2342 111.876 77.4793 111.817 76.7287C111.727 74.5615 111.152 72.4443 110.583 70.3503C109.844 67.5007 109.179 64.8742 108.41 62.0512Z" fill="#3F3D56"/>
<path d="M122.886 87.8378C123.032 89.256 123.175 90.6774 123.438 92.0789C123.744 93.7002 124.21 95.2848 124.672 96.8694C124.898 97.7601 125.222 98.6231 125.637 99.4427C125.788 99.6806 125.907 99.9368 125.993 100.205C126.156 100.871 125.784 101.537 125.624 102.202C125.145 104.2 126.582 106.42 125.677 108.261C125.404 108.82 124.928 109.283 124.749 109.882C124.539 110.571 124.749 111.307 124.859 112.02C125.141 114.017 124.459 116.048 123.787 117.968L122.643 121.211C121.598 119.267 120.544 117.303 119.1 115.635C118.584 115.036 118.022 114.48 117.546 113.847C116.837 112.853 116.276 111.761 115.882 110.605C114.867 107.858 114.286 104.969 114.162 102.043C114.08 101.211 114.176 100.371 114.445 99.5791C114.665 99.1213 114.912 98.6767 115.184 98.2475C116.075 96.6397 116.258 94.7355 116.242 92.8979C116.225 91.0603 116.029 89.216 116.242 87.3884C116.416 85.8625 116.867 84.3811 117.573 83.0175C117.989 82.1344 118.608 81.3622 119.379 80.7637C119.955 80.3327 120.657 80.1044 121.375 80.1146C122.463 80.1778 122.214 81.1133 122.307 82.0154L122.886 87.8378Z" fill="#3F3D56"/>
<path d="M73.9496 83.3068C73.2709 85.3042 72.6587 87.3194 72.1131 89.3523C71.5808 91.3496 71.105 93.3581 70.6858 95.3777C70.4705 96.2657 70.3501 97.1741 70.3265 98.0875C70.3691 99.151 70.5514 100.204 70.8688 101.22C73.0114 108.947 76.9172 116.074 81.3154 122.775C82.5722 121.207 84.065 119.843 85.7403 118.734C85.8774 118.653 85.9918 118.538 86.073 118.401C86.1151 118.271 86.1275 118.134 86.109 117.999C86.0906 117.864 86.0419 117.735 85.9665 117.622C84.7522 115.132 82.8292 112.938 82.2237 110.232C81.9708 109.106 81.9609 107.935 81.6747 106.816C81.3054 105.368 80.4804 104.043 80.2907 102.558C80.0878 100.94 80.6234 99.1761 79.8649 97.7413C81.4119 97.1388 82.3069 95.5442 82.9623 94.0162C83.6626 92.4529 84.1633 90.8077 84.4527 89.1192C84.9083 85.8822 84.2751 82.5856 82.6529 79.7482C81.8605 78.3328 80.8436 77.0555 79.642 75.9664C79.2461 75.6102 78.3112 74.5882 77.7356 74.5982C76.9671 74.6149 76.7209 75.8599 76.5013 76.4192C75.613 78.7029 74.7347 80.9899 73.9496 83.3068Z" fill="#3F3D56"/>
<path d="M87.7298 120.568C87.8296 120.642 87.9427 120.741 87.9161 120.861C87.8895 120.981 87.793 121.011 87.7065 121.061C87.2567 121.38 86.921 121.835 86.7483 122.359C86.1955 123.606 85.7134 124.883 85.3045 126.184C84.5599 125.068 83.6842 124.046 82.6961 123.138C81.9376 122.439 81.0892 121.777 80.6833 120.831C80.6833 120.805 82.4266 119.516 82.5863 119.377C83.0754 118.94 83.6909 117.732 84.1966 117.466C84.7688 117.166 85.3144 118.341 85.7503 118.814C86.3498 119.463 87.013 120.051 87.7298 120.568Z" fill="#FBBEBE"/>
<path d="M114.785 48.5423C114.761 48.1062 114.705 47.6235 114.372 47.3405C114.08 47.1384 113.728 47.041 113.374 47.0642C111.434 47.0009 109.428 47.3272 107.598 46.6747C106.394 46.2453 105.366 45.4197 104.192 44.907C103.017 44.3943 101.513 44.2579 100.565 45.1201C99.8465 45.7859 99.6502 46.8079 99.4007 47.75C98.8514 49.8293 97.8734 51.7706 96.5296 53.4492C95.628 53.1695 94.9825 52.3639 94.5667 51.5184C93.1527 48.6355 93.848 45.1933 94.8528 42.1373C95.1855 41.112 95.5548 40.0966 95.9241 39.0846L96.7358 36.8475C97.8013 36.7428 98.7911 36.25 99.5172 35.4627L99.8665 36.3116C100.769 36.2791 101.639 35.9713 102.362 35.4294C102.641 35.9554 103.36 36.0952 103.942 35.9254C104.524 35.7556 105.027 35.4294 105.605 35.2596C107.153 34.7603 108.803 35.5293 110.426 35.6158C111.113 35.5991 111.801 35.6191 112.486 35.6757C114.402 35.9853 115.756 37.7896 116.342 39.6406C116.731 40.8723 117.054 42.387 118.268 42.8231C118.294 43.2891 117.469 43.379 117.4 43.8218C117.391 43.9694 117.426 44.1162 117.499 44.2445L118.614 46.6381C118.081 46.7719 117.521 46.7441 117.004 46.5582C116.501 47.74 114.834 49.4444 114.785 48.5423Z" fill="#192534"/>
<path d="M171.263 53.7521C171.828 55.5775 172.272 57.438 172.594 59.3215C172.833 60.733 172.973 62.301 172.165 63.4794C175.245 58.8421 178.462 54.0651 183.143 51.0723C182.19 50.0381 181.465 48.8149 181.015 47.482C180.565 46.1491 180.401 44.7365 180.532 43.3357C180.558 43.0561 176.689 44.5175 176.393 44.684C175.036 45.4397 173.791 46.3784 172.467 47.1874C171.782 47.6035 168.927 48.5889 168.901 49.1848C168.901 49.5676 170.035 50.7394 170.248 51.1422C170.666 51.9791 171.006 52.8528 171.263 53.7521Z" fill="#FBBEBE"/>
<path d="M185.579 228.65C184.818 228.114 183.927 227.794 182.999 227.723C182.071 227.653 181.142 227.835 180.309 228.251C178.802 229.03 177.787 230.504 176.416 231.503C174.061 233.214 170.95 233.351 168.192 234.276C167.46 234.522 166.682 234.889 166.372 235.608C166.269 235.91 166.227 236.23 166.251 236.549C166.274 236.867 166.362 237.178 166.509 237.462C166.97 238.49 167.778 239.323 168.791 239.815C170.029 240.408 171.453 240.435 172.823 240.451L184.734 240.591C188.393 240.634 192.076 240.678 195.713 241.134C196.561 241.24 197.479 241.357 198.228 240.941C199.446 240.275 199.585 238.59 199.492 237.202C199.247 233.685 198.461 230.227 197.163 226.949C197.02 226.586 196.831 226.173 196.428 226.107C196.142 226.094 195.861 226.183 195.636 226.36C192.276 228.357 188.021 229.486 184.448 227.888" fill="white"/>
<path d="M191.541 152.616C190.21 160.349 191.078 168.295 192.575 175.995C192.851 177.529 193.214 179.045 193.663 180.536C194.199 182.234 194.921 183.865 195.423 185.573C196.701 189.901 196.521 194.528 196.332 199.045L195.46 219.602C195.387 221.326 195.32 223.09 195.839 224.735C196.049 225.401 196.305 226.233 195.776 226.682C195.569 226.831 195.327 226.924 195.074 226.952C192.693 227.391 190.234 227.022 188.087 225.903L187.851 205.137C187.778 198.736 187.701 192.307 186.717 185.986C185.935 180.959 184.577 175.999 184.488 170.912C184.394 165.586 185.699 160.329 187.029 155.166C187.316 154.061 188.36 153.252 189.219 152.503C189.518 152.207 189.883 151.986 190.283 151.857C190.682 151.747 191.295 152.28 191.541 152.616Z" fill="#3F3D56"/>
<path opacity="0.1" d="M191.541 152.616C190.21 160.349 191.078 168.295 192.575 175.995C192.851 177.529 193.214 179.045 193.663 180.536C194.199 182.234 194.921 183.865 195.423 185.573C196.701 189.901 196.521 194.528 196.332 199.045L195.46 219.602C195.387 221.326 195.32 223.09 195.839 224.735C196.049 225.401 196.305 226.233 195.776 226.682C195.569 226.831 195.327 226.924 195.074 226.952C192.693 227.391 190.234 227.022 188.087 225.903L187.851 205.137C187.778 198.736 187.701 192.307 186.717 185.986C185.935 180.959 184.577 175.999 184.488 170.912C184.394 165.586 185.699 160.329 187.029 155.166C187.316 154.061 188.36 153.252 189.219 152.503C189.518 152.207 189.883 151.986 190.283 151.857C190.682 151.747 191.295 152.28 191.541 152.616Z" fill="black"/>
<path d="M166.559 128.448C166.066 130.475 167.111 132.576 166.994 134.66C166.928 135.921 166.432 137.18 166.662 138.418C166.891 139.656 167.776 140.589 168.249 141.724C168.593 142.672 168.775 143.671 168.788 144.68C168.924 147.17 168.814 149.673 168.721 152.153C168.565 156.315 168.448 160.499 168.997 164.624C169.475 168.197 170.446 171.687 171.882 174.994C172.317 175.893 172.676 176.827 172.956 177.787C173.14 178.68 173.262 179.586 173.322 180.496C173.639 183.458 174.433 186.348 175.674 189.055C176.523 190.909 178.003 192.384 178.472 194.352C178.918 196.236 178.619 198.223 178.942 200.131C179.178 201.546 179.753 202.884 180.073 204.282C180.489 206.09 180.479 207.964 180.688 209.808C181.287 215.134 183.706 220.461 182.262 225.627C181.972 226.666 181.523 227.721 181.726 228.78C181.826 229.299 182.079 229.812 181.966 230.328C181.873 230.767 181.533 231.107 181.36 231.523C181.028 232.302 181.38 233.227 181.972 233.83C182.604 234.392 183.338 234.826 184.135 235.108C186.587 236.157 189.125 237.222 191.787 237.199C192.11 237.216 192.433 237.157 192.728 237.026C193.208 236.776 193.444 236.234 193.647 235.734L195.011 232.359C195.177 231.949 195.343 231.47 195.114 231.09C194.954 230.882 194.761 230.702 194.542 230.558C193.44 229.629 193.69 227.894 193.983 226.5C194.731 222.917 195.145 219.273 195.22 215.614C195.367 208.317 194.166 201.063 192.968 193.862C192.552 191.362 192.133 188.845 191.304 186.449C190.476 184.052 189.255 181.745 189.455 179.255C189.668 176.565 188.969 173.745 189.455 171.092C189.94 168.439 190.709 165.842 191.205 163.192C191.847 159.754 192.006 156.248 192.203 152.759C192.286 151.335 192.392 149.863 193.058 148.598C193.447 147.859 194.013 147.227 194.448 146.511C195.573 144.65 195.753 142.343 196.827 140.452C197.336 139.557 198.038 138.768 198.411 137.809C198.672 137.053 198.81 136.259 198.817 135.459C198.922 133.45 198.811 131.435 198.484 129.45C192.821 126.566 186.54 125.108 180.186 125.202C177.754 125.242 175.295 125.488 173.013 126.331C170.837 127.139 168.854 128.275 166.559 128.448Z" fill="#3F3D56"/>
<path d="M180.199 233.916C179.221 235.135 179.288 236.876 178.662 238.311C177.904 240.052 176.213 241.167 174.61 242.182L164.629 248.507C164.083 248.84 163.498 249.25 163.298 249.869C163.203 250.264 163.221 250.678 163.348 251.064C163.586 251.899 164.03 252.661 164.64 253.28C165.249 253.899 166.004 254.355 166.835 254.606C167.718 254.817 168.625 254.909 169.533 254.882L174.021 254.942C175.388 254.996 176.758 254.942 178.116 254.782C179.361 254.603 180.572 254.246 181.809 254.02C184.062 253.611 186.377 253.647 188.633 253.251C190.014 252.979 191.378 252.627 192.718 252.196C194.349 251.706 196.009 251.197 197.406 250.228C197.791 249.994 198.103 249.658 198.308 249.256C198.544 248.707 198.414 248.078 198.281 247.495L196.139 238.074C196.018 237.29 195.732 236.54 195.3 235.874C194.824 235.241 193.969 234.822 193.227 235.092C192.921 235.231 192.632 235.405 192.366 235.611C191.268 236.333 189.861 236.453 188.563 236.227C187.725 236.077 186.617 235.847 185.941 235.291C185.429 234.868 185.276 234.213 184.84 233.733C184.535 233.419 184.167 233.173 183.76 233.011C183.353 232.848 182.917 232.773 182.479 232.791C182.041 232.808 181.612 232.917 181.219 233.111C180.827 233.305 180.479 233.579 180.199 233.916Z" fill="white"/>
<path d="M173.728 52.4541C180.367 52.4541 185.749 47.0692 185.749 40.4265C185.749 33.7839 180.367 28.3989 173.728 28.3989C167.09 28.3989 161.708 33.7839 161.708 40.4265C161.708 47.0692 167.09 52.4541 173.728 52.4541Z" fill="#FBBEBE"/>
<path d="M164.456 41.1319C165.607 40.4861 165.607 38.6252 166.785 38.006C167.963 37.3868 169.3 38.4621 170.055 39.5473C171.156 41.1367 171.92 42.9346 172.301 44.8304C172.407 45.3697 172.507 45.959 172.913 46.3351C173.319 46.7113 173.851 46.7579 174.37 46.8112C175.89 46.9621 177.411 47.0997 178.935 47.224C180.632 47.3605 182.422 47.4703 183.962 46.7413C184.57 46.4693 185.092 46.0365 185.472 45.4896C185.777 44.9644 185.995 44.3933 186.118 43.7985C186.913 40.7724 187.715 37.7097 187.781 34.5805C187.808 33.2889 187.695 31.9506 187.073 30.8188C186.71 30.153 186.178 29.5737 186.028 28.8413C185.878 28.109 186.361 27.1768 187.119 27.2567C186.434 27.285 185.751 27.1551 185.123 26.8772C184.521 26.5443 184.075 25.8286 184.288 25.1761C182.598 25.3925 181.367 23.7214 180.049 22.6394C179.835 22.4269 179.546 22.3073 179.244 22.3065C179.013 22.3643 178.789 22.4504 178.579 22.5629C177.914 22.7959 177.218 22.3532 176.536 22.1601C174.706 21.6474 172.381 22.8858 171.023 21.5542C171.153 22.4031 170.112 22.9723 169.253 22.9557C168.395 22.9391 167.51 22.6228 166.698 22.9091C166.816 23.1243 166.885 23.3628 166.899 23.6076C166.914 23.8523 166.875 24.0974 166.784 24.3251C166.693 24.5528 166.553 24.7577 166.373 24.9249C166.194 25.0922 165.98 25.2178 165.747 25.2926L166.149 26.1715C165.735 26.2545 165.351 26.4518 165.043 26.7412C164.734 27.0306 164.512 27.4006 164.403 27.8094C163.96 29.5571 164.07 32.0405 164.177 33.8381C164.23 34.6271 164.998 40.8357 164.456 41.1319Z" fill="#192534"/>
<path d="M174.713 55.9295C168.675 62.7239 167.138 72.2881 165.85 81.293L163.954 94.589C163.461 98.0378 162.956 101.487 162.526 104.945C162.227 107.312 161.947 109.716 162.273 112.079C162.53 113.944 163.152 115.741 163.671 117.536C165.021 122.242 165.693 127.117 165.667 132.013C166.07 130.828 167.464 130.349 168.688 130.083C178.961 127.852 189.679 128.998 199.249 133.348C200.929 128.638 200.613 123.485 201.082 118.504C201.748 111.404 204.04 104.523 204.719 97.4352C204.968 94.7953 204.998 92.1422 205.025 89.489C205.045 87.5415 205.065 85.5741 204.659 83.6666C204.206 81.556 203.252 79.5886 202.263 77.6744C199.532 72.3534 196.497 67.1939 193.174 62.2213C191.502 59.7179 189.757 57.2644 187.941 54.8609C187.02 53.6425 186.081 52.4374 185.123 51.2456C184.195 50.0905 183.792 49.0884 182.318 49.7809C179.534 51.0858 176.739 53.6491 174.713 55.9295Z" fill="#0075F2"/>
<path d="M178.173 112.482C176.7 112.535 175.225 112.488 173.758 112.342C172.67 112.236 171.559 112.076 170.498 112.342C170.036 112.458 169.604 112.67 169.23 112.965C169.092 113.088 168.992 113.249 168.943 113.429C168.895 113.608 168.9 113.798 168.957 113.974C169.015 114.151 169.123 114.307 169.267 114.423C169.412 114.54 169.588 114.611 169.772 114.629L170.91 114.729C171.632 114.792 172.384 114.865 172.946 115.395C173.177 115.603 173.324 115.888 173.359 116.197C173.429 116.973 172.757 117.395 172.155 117.718C171.298 118.121 170.507 118.648 169.806 119.283C169.257 119.814 168.912 120.521 168.831 121.28C168.828 121.348 168.844 121.415 168.875 121.475C168.907 121.535 168.954 121.586 169.011 121.622C169.068 121.658 169.134 121.678 169.202 121.681C169.269 121.683 169.337 121.668 169.397 121.637C170.727 120.971 171.596 118.997 173.056 119.326C171.728 119.747 170.59 120.623 169.842 121.8C169.658 122.081 169.574 122.416 169.604 122.751C169.633 123.085 169.775 123.4 170.006 123.644C170.238 123.888 170.544 124.047 170.877 124.095C171.209 124.142 171.548 124.076 171.838 123.907C172.055 123.78 172.264 123.641 172.464 123.491C173.454 122.689 174.34 121.768 175.102 120.748C174.038 122.995 172.96 125.625 174.184 127.858C174.245 127.981 174.34 128.084 174.458 128.154C174.577 128.223 174.712 128.257 174.849 128.251C175.235 128.211 175.348 127.848 175.412 127.529C175.611 126.5 175.661 125.415 176.167 124.5C177.338 122.376 180.226 122.169 182.425 121.134C185.063 119.909 186.87 117.272 187.598 114.456C187.853 113.635 187.898 112.762 187.728 111.919C187.239 110.025 184.903 109.589 183.403 110.504C181.563 111.673 180.495 112.409 178.173 112.482Z" fill="#FBBEBE"/>
<path opacity="0.1" d="M175.837 75.2208C178.166 78.8194 182.209 80.8467 185.675 83.3734C186.521 83.9246 187.259 84.6265 187.851 85.4441C188.726 86.7956 188.849 88.5134 188.67 90.1046C188.443 92.2052 187.768 94.2259 187.099 96.23L185.645 100.574C184.724 103.331 183.772 106.144 182.019 108.461C181.57 109.05 181.047 109.679 181.067 110.418C181.106 110.845 181.253 111.255 181.493 111.61C182.054 112.526 182.794 113.32 183.668 113.944C184.542 114.569 185.532 115.011 186.58 115.245C187.208 115.405 187.866 115.405 188.493 115.245C189.391 114.979 190.067 114.246 190.692 113.554C193.687 110.248 196.681 106.896 198.843 103.018C200.956 99.2327 202.22 95.0282 203.385 90.8637C203.864 89.3305 204.198 87.7556 204.383 86.1598C204.629 83.1637 203.844 80.1676 202.56 77.4612C201.275 74.7547 199.509 72.3046 197.689 69.9244C195.971 67.5864 194.063 65.3951 191.983 63.3729C188.363 59.9873 183.935 57.9966 179.091 59.9174C175.671 61.2757 174.39 64.1086 174.084 67.7372C173.825 70.3571 174.442 72.9891 175.837 75.2208Z" fill="black"/>
<path d="M177.049 74.3082C179.377 77.9068 183.423 79.9342 186.886 82.4609C187.729 83.0175 188.463 83.7237 189.052 84.5448C189.927 85.8964 190.05 87.6108 189.871 89.2054C189.641 91.306 188.969 93.3267 188.297 95.3307L186.843 99.6584C185.921 102.415 184.97 105.224 183.217 107.545C182.771 108.134 182.249 108.76 182.268 109.502C182.305 109.929 182.452 110.338 182.694 110.691C183.255 111.607 183.993 112.402 184.867 113.027C185.74 113.652 186.73 114.095 187.778 114.329C188.407 114.489 189.065 114.489 189.694 114.329C190.593 114.066 191.265 113.331 191.893 112.641C194.888 109.332 197.882 105.983 200.044 102.105C202.157 98.3202 203.421 94.1157 204.586 89.9478C205.067 88.4161 205.401 86.8422 205.584 85.2472C205.83 82.2512 205.045 79.2551 203.764 76.5453C202.483 73.8355 200.713 71.3887 198.893 69.0085C197.17 66.6827 195.257 64.5037 193.174 62.4937C189.558 59.1114 185.13 57.1173 180.286 59.0415C176.862 60.3997 175.585 63.2294 175.275 66.8613C175.031 69.4712 175.654 72.0889 177.049 74.3082Z" fill="#0075F2"/>
<path d="M250.614 193.716C250.617 194.584 250.527 195.45 250.348 196.299C250.315 196.459 250.278 196.632 250.241 196.769C249.297 200.56 246.632 203.333 243.451 203.51C243.345 203.51 243.238 203.51 243.118 203.51C239.755 203.51 236.91 200.607 235.972 196.609C235.946 196.502 235.922 196.396 235.899 196.276C235.72 195.427 235.63 194.561 235.633 193.693C235.633 188.276 238.983 183.889 243.118 183.889C247.254 183.889 250.614 188.31 250.614 193.716Z" fill="#3F3D56"/>
<path opacity="0.1" d="M250.614 193.716C250.617 194.584 250.527 195.45 250.348 196.299C250.315 196.459 250.278 196.632 250.241 196.768C250.128 196.768 250.019 196.768 249.909 196.768C249.085 196.724 248.266 196.613 247.46 196.436C246.746 196.656 246.017 196.823 245.278 196.935C244.711 197.02 244.14 197.074 243.568 197.095H242.989C242.303 197.095 241.619 197.049 240.939 196.958C239.841 196.811 238.762 196.543 237.722 196.159C237.153 196.349 236.573 196.504 235.985 196.625C235.959 196.519 235.936 196.412 235.912 196.292C235.733 195.443 235.644 194.577 235.646 193.709C235.646 188.293 238.996 183.905 243.132 183.905C247.267 183.905 250.614 188.31 250.614 193.716Z" fill="black"/>
<path d="M266.583 175.453C266.587 173.07 266.028 170.719 264.953 168.592L256.15 171.332L263.879 166.784C262.582 164.911 260.882 163.353 258.904 162.225C256.925 161.097 254.719 160.427 252.447 160.266C252.086 159.717 251.689 159.192 251.26 158.695L238.617 162.633L248.987 156.531C247.003 155.008 244.675 153.997 242.208 153.589C239.741 153.18 237.211 153.386 234.843 154.189C232.475 154.992 230.34 156.366 228.629 158.191C226.918 160.016 225.683 162.234 225.033 164.65L235.862 177.124L224.115 168.622C221.139 170.734 219.021 173.845 218.145 177.389C217.27 180.933 217.697 184.674 219.347 187.929C220.997 191.185 223.761 193.739 227.136 195.126C230.511 196.514 234.271 196.642 237.732 195.487C240.863 196.638 244.284 196.733 247.473 195.756C249.697 196.246 252.002 196.231 254.219 195.711C256.436 195.192 258.508 194.182 260.283 192.756C262.058 191.33 263.492 189.523 264.477 187.47C265.463 185.416 265.975 183.167 265.978 180.889C265.978 180.556 265.978 180.223 265.945 179.89C266.376 178.451 266.591 176.956 266.583 175.453Z" fill="#0075F2"/>
<path opacity="0.1" d="M266.321 178.276C261.672 177.395 256.904 177.334 252.234 178.097C246.948 178.972 241.545 180.896 236.375 179.491C233.341 178.666 230.719 176.755 227.755 175.693C224.895 174.695 221.814 174.51 218.855 175.16C217.728 177.859 217.401 180.826 217.913 183.705C218.425 186.585 219.755 189.257 221.744 191.4C223.733 193.544 226.297 195.069 229.129 195.794C231.961 196.519 234.942 196.412 237.715 195.487C240.846 196.639 244.267 196.733 247.457 195.757C249.68 196.246 251.985 196.231 254.202 195.712C256.419 195.193 258.491 194.183 260.266 192.756C262.042 191.33 263.475 189.524 264.46 187.47C265.446 185.416 265.959 183.168 265.961 180.89C265.961 180.557 265.961 180.224 265.928 179.891C266.089 179.36 266.22 178.821 266.321 178.276Z" fill="black"/>
</g>
<defs>
<clipPath id="clip0_2255_2230">
<rect width="276.084" height="253.003" fill="white" transform="translate(33.7337 8.87744)"/>
</clipPath>
</defs>
</svg>
