<svg width="340" height="315" viewBox="0 0 340 315" fill="none" xmlns="http://www.w3.org/2000/svg">
<ellipse cx="128.266" cy="101.268" rx="117.545" ry="94.1892" fill="#AED7FF"/>
<ellipse cx="212.5" cy="112.754" rx="117.545" ry="94.1892" fill="#AED7FF"/>
<ellipse cx="170" cy="164.827" rx="170" ry="120.991" fill="#AED7FF"/>
<ellipse cx="214.797" cy="213.836" rx="107.59" ry="100.315" fill="#AED7FF"/>
<g clip-path="url(#clip0_2246_2182)">
<path d="M168.549 141.982C150.398 141.982 129.538 121.84 111.082 131.41C55.2012 160.386 62.8935 111.899 46.8395 93.8667L47.3665 92.8096C65.0802 108.693 87.1964 121.616 111.324 130.181C133.128 137.921 155.096 141.508 174.844 140.562L174.878 141.832C172.793 141.933 170.683 141.983 168.549 141.982Z" fill="#F2F2F2"/>
<path d="M256.514 49.0621C247.143 55.2473 228.497 53.2933 222.71 63.8882C205.191 95.9667 190.203 71.5306 174.863 68.888L174.722 68.2328C190.078 69.3427 206.549 67.6206 222.355 63.2523C236.639 59.305 249.382 53.433 259.208 46.2778L259.722 46.8378C258.685 47.5938 257.615 48.3352 256.514 49.0621Z" fill="#F2F2F2"/>
<path d="M87.0581 57.4493C89.1535 57.4493 90.8522 55.1714 90.8522 52.3616C90.8522 49.5518 89.1535 47.2739 87.0581 47.2739C84.9627 47.2739 83.264 49.5518 83.264 52.3616C83.264 55.1714 84.9627 57.4493 87.0581 57.4493Z" fill="#E6E6E6"/>
<path d="M246.505 105.059C248.6 105.059 250.299 102.781 250.299 99.971C250.299 97.1611 248.6 94.8833 246.505 94.8833C244.409 94.8833 242.71 97.1611 242.71 99.971C242.71 102.781 244.409 105.059 246.505 105.059Z" fill="#E6E6E6"/>
<path d="M135.528 17.9445C136.31 17.9445 136.944 16.676 136.944 15.1112C136.944 13.5464 136.31 12.2778 135.528 12.2778C134.745 12.2778 134.111 13.5464 134.111 15.1112C134.111 16.676 134.745 17.9445 135.528 17.9445Z" fill="#E6E6E6"/>
<path d="M210.323 171.746L205.911 145.212C205.822 144.675 205.95 144.125 206.267 143.682C206.584 143.239 207.063 142.94 207.6 142.85L227.639 139.518C228.176 139.429 228.726 139.557 229.169 139.874C229.612 140.19 229.911 140.67 230.001 141.206L234.413 167.74C234.502 168.277 234.374 168.828 234.057 169.27C233.741 169.713 233.261 170.013 232.724 170.102L212.686 173.435C212.149 173.523 211.598 173.395 211.155 173.079C210.712 172.762 210.413 172.283 210.323 171.746Z" fill="#3F3D56"/>
<path d="M210.528 163.477L207.691 146.418C207.608 145.915 207.728 145.4 208.025 144.985C208.321 144.57 208.77 144.29 209.273 144.206L226.494 141.342C226.997 141.259 227.513 141.379 227.928 141.675C228.343 141.972 228.623 142.421 228.707 142.924L232.633 166.535C232.716 167.038 232.596 167.553 232.3 167.968C232.003 168.383 231.554 168.663 231.052 168.747L220.383 170.521C218.142 170.891 215.846 170.358 213.999 169.037C212.151 167.716 210.903 165.716 210.528 163.477Z" fill="white"/>
<path d="M211.271 150.714C211.19 150.222 211.307 149.718 211.597 149.313C211.886 148.908 212.325 148.634 212.817 148.552L224.763 146.565C225.007 146.525 225.256 146.532 225.496 146.588C225.736 146.644 225.963 146.746 226.164 146.89C226.365 147.034 226.536 147.215 226.666 147.425C226.797 147.634 226.885 147.867 226.925 148.111C226.966 148.354 226.958 148.603 226.902 148.843C226.846 149.084 226.744 149.311 226.6 149.512C226.457 149.712 226.275 149.883 226.066 150.013C225.856 150.144 225.623 150.232 225.38 150.273L213.433 152.259C212.942 152.34 212.438 152.223 212.032 151.933C211.627 151.644 211.353 151.205 211.271 150.714Z" fill="#0075F2"/>
<path d="M212.23 156.481C212.149 155.989 212.266 155.485 212.556 155.08C212.845 154.675 213.284 154.401 213.776 154.319L225.722 152.332C225.966 152.292 226.215 152.299 226.455 152.355C226.695 152.411 226.922 152.514 227.123 152.657C227.324 152.801 227.494 152.982 227.625 153.192C227.756 153.401 227.844 153.634 227.884 153.878C227.925 154.121 227.917 154.37 227.861 154.61C227.805 154.851 227.703 155.078 227.559 155.279C227.416 155.479 227.234 155.65 227.025 155.781C226.815 155.911 226.582 155.999 226.339 156.04L214.392 158.026C213.9 158.107 213.397 157.99 212.991 157.701C212.586 157.411 212.312 156.972 212.23 156.481Z" fill="#0075F2"/>
<path d="M213.189 162.249C213.108 161.757 213.225 161.253 213.515 160.848C213.805 160.443 214.243 160.169 214.735 160.087L226.681 158.1C227.173 158.018 227.677 158.135 228.082 158.425C228.488 158.715 228.761 159.154 228.843 159.646C228.925 160.137 228.808 160.641 228.518 161.047C228.228 161.452 227.789 161.726 227.298 161.808L215.351 163.794C214.86 163.875 214.356 163.758 213.951 163.469C213.545 163.179 213.271 162.74 213.189 162.249Z" fill="#0075F2"/>
<path d="M201.275 146.737C200.754 146.15 200.367 145.455 200.142 144.702C199.918 143.949 199.861 143.156 199.977 142.379C200.092 141.602 200.376 140.859 200.809 140.203C201.243 139.548 201.814 138.995 202.484 138.585L195.495 105.303L204.759 108.865L210.122 140.661C210.737 141.832 210.902 143.188 210.584 144.472C210.266 145.756 209.488 146.879 208.398 147.628C207.307 148.377 205.98 148.7 204.667 148.536C203.355 148.372 202.148 147.732 201.275 146.737Z" fill="#FFB8B8"/>
<path d="M198.191 252.002L205.817 252.001L209.444 222.588L198.19 222.589L198.191 252.002Z" fill="#FFB6B6"/>
<path d="M196.246 249.511L198.393 249.511L206.772 246.104L211.263 249.511H211.264C213.802 249.511 216.236 250.519 218.031 252.314C219.826 254.109 220.834 256.543 220.834 259.081V259.392L196.247 259.393L196.246 249.511Z" fill="#2F2E41"/>
<path d="M129.29 242.087L136.115 245.489L152.482 220.783L142.41 215.763L129.29 242.087Z" fill="#FFB6B6"/>
<path d="M128.66 238.991L130.581 239.949L139.601 240.637L142.101 245.69L142.101 245.69C144.373 246.822 146.101 248.811 146.907 251.218C147.713 253.624 147.529 256.253 146.397 258.524L146.258 258.803L124.252 247.835L128.66 238.991Z" fill="#2F2E41"/>
<path d="M201.57 118.42L153.085 119.685L153.928 143.295C153.928 143.295 153.085 149.619 154.772 151.305C156.458 152.992 157.301 152.992 156.458 155.943C155.615 158.894 153.435 187.092 153.435 187.092C153.435 187.092 133.535 222.278 134.378 223.121C135.222 223.965 136.065 223.121 135.222 225.229C134.378 227.337 133.535 226.494 134.378 227.337C135.125 228.143 135.829 228.987 136.486 229.867H150.229C150.229 229.867 150.998 225.651 150.998 225.229C150.998 224.808 151.841 222.278 151.841 221.857C151.841 221.435 175.852 195.996 175.852 195.996L180.911 153.835L193.138 195.152C193.138 195.152 193.138 231.411 193.981 232.254C194.824 233.097 194.824 232.675 194.403 234.362C193.981 236.048 192.295 235.627 193.559 236.891C194.824 238.156 195.246 236.048 194.824 238.156L194.403 240.264L210.6 240.445C210.6 240.445 212.287 236.891 211.444 235.627C210.6 234.362 210.651 234.707 211.68 232.637C212.708 230.567 213.13 230.146 212.708 229.724C212.287 229.303 212.287 227.06 212.287 227.06C212.287 227.06 206.208 144.138 206.208 142.873C206.176 142.222 206.296 141.573 206.558 140.976V139.26L204.943 133.176L201.57 118.42Z" fill="#2F2E41"/>
<path d="M245.276 236.156L245.695 226.749C250.056 224.418 254.92 223.187 259.865 223.162C253.059 228.726 253.91 239.452 249.296 246.935C247.839 249.258 245.878 251.223 243.558 252.684C241.238 254.146 238.619 255.067 235.895 255.379L230.2 258.867C229.419 254.51 229.591 250.035 230.705 245.752C231.819 241.468 233.849 237.477 236.654 234.053C238.247 232.148 240.073 230.451 242.09 229.002C243.454 232.599 245.276 236.156 245.276 236.156Z" fill="#F2F2F2"/>
<path d="M176.464 35.6196L200.75 84.7345L195.999 144.341L164.965 141.506L159.401 42.7925L176.464 35.6196Z" fill="#2F2E41"/>
<path d="M210.566 137.761L196.375 136.464L196.353 136.284L186.83 57.4321L188.961 51.5232C189.471 50.1204 190.335 48.8733 191.469 47.9031C192.604 46.933 193.97 46.2728 195.435 45.9868C196.551 45.7718 197.699 45.7796 198.811 46.0101C199.924 46.2406 200.981 46.689 201.92 47.3296C202.858 47.9701 203.661 48.7901 204.282 49.7423C204.902 50.6945 205.328 51.7601 205.535 52.8777L208.084 66.6435L211.7 113.176L210.566 137.761Z" fill="#2F2E41"/>
<path d="M173.618 42.9031L176.48 36.0557L185.338 36.2112L194.575 49.2766L204.27 90.0468C204.27 90.0468 207.752 119.829 204.27 121.402C200.788 122.974 188.986 121.032 188.986 121.032L173.618 42.9031Z" fill="#0075F2"/>
<path d="M185.338 36.2114C185.338 36.2114 204.419 47.2414 205.166 52.9991C205.912 58.7567 208.411 129.227 208.411 129.227L201.663 124.867L199.819 99.1831L191.584 46.5978L185.338 36.2114Z" fill="#2F2E41"/>
<path d="M180.834 33.0029C188.016 33.0029 193.838 27.1806 193.838 19.9985C193.838 12.8164 188.016 6.99414 180.834 6.99414C173.652 6.99414 167.83 12.8164 167.83 19.9985C167.83 27.1806 173.652 33.0029 180.834 33.0029Z" fill="#FFB8B8"/>
<path d="M166.083 11.4537C167.544 9.19459 170.284 7.68896 172.94 8.11205C173.188 6.41673 173.895 4.82173 174.986 3.50073C176.077 2.17973 177.51 1.18336 179.128 0.62011C180.746 0.0568602 182.487 -0.0516814 184.163 0.306306C185.838 0.664294 187.383 1.47509 188.63 2.65041C189.04 2.36178 189.517 2.18389 190.016 2.13397C190.515 2.08404 191.018 2.16377 191.477 2.36543C192.392 2.78116 193.187 3.41961 193.791 4.22234C195.315 6.12327 196.295 8.40196 196.627 10.8159C196.959 13.2297 196.631 15.6885 195.676 17.9304C196.001 16.7501 194.818 15.6398 193.623 15.3749C192.428 15.1101 191.174 15.3607 189.962 15.1882C188.409 14.9672 187.013 14.0661 185.457 13.8633C184.15 13.6929 182.835 14.0281 181.56 14.3641C180.285 14.7001 178.974 15.0427 177.664 14.8873C176.355 14.7318 174.668 19.6939 174.691 23.1888C174.695 23.8511 174.559 24.7015 173.912 24.842C173.115 25.0151 172.653 23.9149 171.894 23.6152C171.544 23.515 171.169 23.5544 170.848 23.7252C170.527 23.896 170.285 24.1847 170.172 24.5307C170.077 24.8824 170.066 25.2518 170.142 25.6082C170.218 25.9647 170.379 26.2978 170.609 26.5799C171.076 27.1392 171.629 27.6194 172.249 28.0021L171.936 28.262C171.416 28.9486 170.338 28.9784 169.589 28.5536C168.873 28.0684 168.293 27.4078 167.904 26.6348C166.518 24.3295 165.302 21.8733 164.813 19.2282C164.324 16.5832 164.623 13.7128 166.083 11.4537Z" fill="#2F2E41"/>
<path d="M137.758 107.763L163.739 79.8895C164.265 79.3259 164.994 78.9942 165.765 78.9671C166.535 78.94 167.285 79.2198 167.85 79.745L188.901 99.3664C189.465 99.8929 189.796 100.621 189.824 101.392C189.851 102.163 189.571 102.913 189.046 103.478L163.065 131.352C162.538 131.915 161.81 132.247 161.039 132.274C160.268 132.301 159.518 132.021 158.953 131.496L137.902 111.875C137.339 111.348 137.007 110.62 136.98 109.849C136.953 109.078 137.233 108.328 137.758 107.763Z" fill="#E6E6E6"/>
<path d="M147.22 100.849L163.923 82.9295C164.416 82.4017 165.098 82.091 165.82 82.0656C166.542 82.0403 167.244 82.3023 167.773 82.7942L185.865 99.6571C186.393 100.15 186.703 100.833 186.729 101.554C186.754 102.276 186.492 102.979 186 103.508L162.881 128.312C162.388 128.839 161.705 129.15 160.983 129.175C160.262 129.201 159.559 128.939 159.03 128.447L147.823 118.001C145.472 115.804 144.088 112.765 143.975 109.55C143.862 106.334 145.029 103.205 147.22 100.849Z" fill="white"/>
<path d="M162.192 90.6598C162.674 90.144 163.34 89.8404 164.046 89.8156C164.751 89.7908 165.438 90.0469 165.954 90.5275L178.504 102.225C179.021 102.707 179.325 103.374 179.35 104.079C179.375 104.785 179.118 105.471 178.637 105.988C178.155 106.504 177.488 106.809 176.783 106.833C176.077 106.858 175.391 106.602 174.874 106.12L162.324 94.4224C161.808 93.9406 161.505 93.2738 161.48 92.5684C161.455 91.8631 161.711 91.1766 162.192 90.6598Z" fill="#E6E6E6"/>
<path d="M156.545 96.7184C157.026 96.2026 157.693 95.899 158.399 95.8742C159.104 95.8494 159.79 96.1054 160.307 96.5861L172.857 108.284C173.113 108.522 173.319 108.809 173.464 109.127C173.609 109.445 173.69 109.788 173.703 110.138C173.715 110.487 173.658 110.836 173.536 111.163C173.414 111.491 173.228 111.791 172.99 112.047C172.751 112.302 172.465 112.509 172.147 112.654C171.829 112.799 171.485 112.88 171.136 112.892C170.786 112.904 170.438 112.848 170.11 112.725C169.783 112.603 169.483 112.417 169.227 112.179L156.677 100.481C156.161 99.9992 155.857 99.3324 155.833 98.627C155.808 97.9216 156.064 97.2352 156.545 96.7184Z" fill="#E6E6E6"/>
<path d="M150.897 102.777C151.379 102.261 152.046 101.958 152.751 101.933C153.457 101.908 154.143 102.164 154.66 102.645L167.21 114.343C167.726 114.824 168.031 115.491 168.055 116.196C168.08 116.902 167.824 117.589 167.342 118.105C166.861 118.622 166.194 118.926 165.488 118.951C164.783 118.975 164.096 118.719 163.58 118.237L151.03 106.54C150.514 106.058 150.21 105.391 150.185 104.686C150.161 103.98 150.417 103.294 150.897 102.777Z" fill="#E6E6E6"/>
<path d="M181.433 136.001L172.451 148.862L172.032 149.367C171.305 150.242 170.3 150.841 169.184 151.067C169.026 151.098 168.868 151.122 168.708 151.138C168.512 151.158 168.314 151.166 168.116 151.162C168.003 151.16 167.89 151.154 167.777 151.144C167.122 151.088 166.484 150.902 165.901 150.598L162.069 147.921C161.764 147.708 161.546 147.392 161.456 147.031C161.412 146.853 161.399 146.668 161.419 146.485C161.447 146.229 161.539 145.983 161.687 145.772L172.748 129.935C172.982 129.6 173.341 129.371 173.744 129.3C174.146 129.228 174.561 129.319 174.897 129.553L181.052 133.851C181.066 133.862 181.08 133.872 181.095 133.882C181.104 133.889 181.113 133.896 181.122 133.904C181.134 133.913 181.146 133.923 181.157 133.932C181.173 133.944 181.187 133.957 181.201 133.97C181.214 133.982 181.227 133.994 181.24 134.006L181.247 134.013C181.263 134.029 181.279 134.044 181.294 134.061C181.31 134.077 181.325 134.094 181.339 134.11C181.349 134.122 181.36 134.135 181.37 134.147L181.371 134.149C181.401 134.186 181.429 134.224 181.455 134.264C181.463 134.276 181.471 134.289 181.479 134.301L181.482 134.307C181.489 134.317 181.495 134.327 181.5 134.337C181.518 134.368 181.535 134.399 181.551 134.431C181.577 134.483 181.6 134.537 181.62 134.592C181.626 134.61 181.632 134.628 181.637 134.646C181.642 134.66 181.647 134.675 181.651 134.69L181.652 134.693L181.653 134.699C181.657 134.712 181.661 134.725 181.664 134.738C181.67 134.763 181.676 134.788 181.681 134.813C181.682 134.82 181.684 134.827 181.685 134.834C181.687 134.841 181.688 134.847 181.689 134.855C181.69 134.861 181.691 134.868 181.692 134.875L181.694 134.886C181.697 134.906 181.7 134.927 181.702 134.947C181.705 134.973 181.707 134.999 181.708 135.024C181.71 135.045 181.711 135.066 181.711 135.087C181.712 135.106 181.712 135.125 181.711 135.144C181.711 135.149 181.711 135.154 181.711 135.158C181.71 135.178 181.709 135.198 181.708 135.217C181.705 135.266 181.7 135.315 181.692 135.363C181.689 135.381 181.686 135.399 181.682 135.416C181.678 135.438 181.673 135.459 181.668 135.481C181.667 135.488 181.664 135.497 181.662 135.504C181.659 135.516 181.656 135.528 181.653 135.539C181.649 135.552 181.645 135.565 181.641 135.578L181.631 135.609C181.625 135.627 181.619 135.645 181.612 135.663C181.608 135.673 181.604 135.684 181.599 135.695C181.568 135.771 181.531 135.846 181.488 135.916C181.483 135.925 181.478 135.934 181.472 135.942C181.46 135.962 181.447 135.981 181.433 136.001Z" fill="white"/>
<path d="M175.35 136.489C176.078 136.489 176.669 135.899 176.669 135.171C176.669 134.442 176.078 133.852 175.35 133.852C174.622 133.852 174.032 134.442 174.032 135.171C174.032 135.899 174.622 136.489 175.35 136.489Z" fill="#0075F2"/>
<path d="M160.455 149.104C159.933 148.517 159.546 147.822 159.322 147.069C159.098 146.316 159.041 145.523 159.156 144.745C159.271 143.968 159.556 143.226 159.989 142.57C160.422 141.915 160.994 141.362 161.664 140.951L154.674 107.669L163.938 111.231L169.302 143.027C169.917 144.198 170.081 145.555 169.763 146.839C169.446 148.123 168.668 149.246 167.577 149.995C166.487 150.744 165.16 151.067 163.847 150.903C162.534 150.738 161.327 150.098 160.455 149.104Z" fill="#FFB8B8"/>
<path d="M155.322 135.598L151.552 111.306L150.135 64.6502L151.188 50.6664C151.274 49.5331 151.582 48.4278 152.097 47.4144C152.611 46.4009 153.321 45.4993 154.186 44.7615C155.05 44.0236 156.052 43.4641 157.134 43.1152C158.216 42.7663 159.356 42.6349 160.488 42.7285C161.976 42.8553 163.405 43.3646 164.637 44.207C165.869 45.0494 166.863 46.1962 167.521 47.536L170.275 53.1812L169.292 132.781L155.322 135.598Z" fill="#2F2E41"/>
<path d="M170.651 25.2694C170.659 25.1222 170.703 24.9792 170.78 24.8531C170.856 24.727 170.963 24.6217 171.089 24.5465C171.216 24.4713 171.36 24.4285 171.507 24.4218C171.654 24.4152 171.801 24.4449 171.934 24.5084C172.067 24.5719 172.183 24.6671 172.27 24.7858C172.358 24.9045 172.415 25.0429 172.436 25.1888C172.458 25.3347 172.443 25.4837 172.393 25.6225C172.343 25.7613 172.26 25.8858 172.151 25.9848L173.661 28.4658C173.723 28.5676 173.742 28.6898 173.713 28.8055C173.685 28.9213 173.612 29.0211 173.51 29.083C173.409 29.1449 173.286 29.1639 173.171 29.1357C173.055 29.1076 172.955 29.0346 172.893 28.9328L171.196 26.1432C171.026 26.0713 170.883 25.9488 170.785 25.7924C170.688 25.6361 170.641 25.4534 170.651 25.2694Z" fill="white"/>
<path d="M171.71 26.9563C171.766 27.0671 171.901 27.1116 172.012 27.0557C172.123 26.9999 172.167 26.8648 172.111 26.7541L171.707 25.952C171.651 25.8413 171.516 25.7968 171.405 25.8526C171.294 25.9085 171.25 26.0435 171.306 26.1543L171.71 26.9563Z" fill="#2F2E41"/>
</g>
<defs>
<clipPath id="clip0_2246_2182">
<rect width="258.778" height="259.722" fill="white" transform="translate(47.2222)"/>
</clipPath>
</defs>
</svg>
